. 
  
http://www.torrenting.com/        :     Greatest Movie Tracker on The Net!!!
 
http://www.Torrenting.com          :     Once & For all ;)


               www . Torrenting . Com 

(((((((((((((= Enjoy No RAR releases =))))))))))))))))))))


...................................NFO:....................................

.                                                                                                     
       
     
     
       
       
     
     
                                         
                                         
                EXVID                    
                                         
         
                                         
         Filled the Archives             
                                         
         
                                         
                With:                    
                                         
         
                                         
                                    
     E240                           
                                    
     SP               (C) 2009      
                                         
     
     
     
                                                                                  
                                                                                   
                    Tracker.2010.WS.DVDRip.XviD-EXViD                               
                                                                                   
                                                                                  
     
                                                                                               
EXViD aims to iNTERNAL those releases which have been lost in the archives.
EXViD aims to PRE non-internal releases which have poor sources and are likely skipped by others. 
http://www.imdb.com/title/tt1414378/
Subtitles: English, Spanish
Date: 2011.09

Director: Ian Sharp

Genres: Action | Adventure | Drama

Plot:
An Afrikaner veteran of the Boer War has just immigrated to New Zealand and is hired to track
a man accused of killing a soldier. While hunting through the countryside he captures his
fugitive, only to learn that he's innocent of the crime. When faced with the life changing
decision to turn him in or set him free only one man will walk away alive.

Cast:
Ray Winstone 	 ... 	 Arjan van Diemen
Temuera Morrison 	 ... 	 Kereama
Gareth Reeves 	 ... 	 Maj. Pritchard Carlysle
Mark Mitchinson 	 ... 	 Saunders
Daniel Musgrove 	 ... 	 Pvt. Rennick
Andy Anderson 	 ... 	 Bryce
Mick Rose 	 ... 	 Sgt. Leyborne
Jodie Hillock 	 ... 	 Lucy
Tim McLachlan 	 ... 	 Levin

Stats:
Format                           : AVI
Format/Info                      : Audio Video Interleave
File size                        : 700 MiB
Duration                         : 1h 42mn
Overall bit rate                 : 959 Kbps
Writing application              : Nandub v1.0rc2
Writing library                  : Nandub build 1852/release

Video
ID                               : 0
Format                           : MPEG-4 Visual
Format profile                   : Advanced Simple@L5
Format settings, BVOP            : 2
Format settings, QPel            : No
Format settings, GMC             : No warppoints
Format settings, Matrix          : Default (H.263)
Codec ID                         : XVID
Codec ID/Hint                    : XviD
Duration                         : 1h 42mn
Bit rate                         : 825 Kbps
Width                            : 624 pixels
Height                           : 256 pixels
Display aspect ratio             : 2.40:1
Frame rate                       : 23.976 fps
Color space                      : YUV
Chroma subsampling               : 4:2:0
Bit depth                        : 8 bits
Scan type                        : Progressive
Compression mode                 : Lossy
Bits/(Pixel*Frame)               : 0.215
Stream size                      : 602 MiB (86%)
Writing library                  : XviD 64

Audio
ID                               : 1
Format                           : MPEG Audio
Format version                   : Version 1
Format profile                   : Layer 3
Mode                             : Joint stereo
Mode extension                   : MS Stereo
Codec ID                         : 55
Codec ID/Hint                    : MP3
Duration                         : 1h 42mn
Bit rate mode                    : Variable
Bit rate                         : 121 Kbps
Nominal bit rate                 : 128 Kbps
Channel(s)                       : 2 channels
Sampling rate                    : 48.0 KHz
Compression mode                 : Lossy
Stream size                      : 88.7 MiB (13%)
Alignment                        : Aligned on interleaves
Interleave, duration             : 24 ms (0.58 video frame)
Interleave, preload duration     : 145 ms
Writing library                  : LAME3.98r
Encoding settings                : -m j -V 4 -q 3 -lowpass 17 --abr 128




Release notes:
UNVEiL rip was 1.82:1. Ours is 2.40:1.

enjoy!

Looking for:
75TB+ Archives
DUTCH/FLEMiSH Archives
                                                                                                    
Greets: CRBS EPiSODE FiCO FLS iLS KLASSiGER LiPSYNC MADE NODLABS RUNNER SPRiNTER      
   

                                                                    ASCII DONE BY XX^NFO 2oo9